<svg width="20" height="20" viewBox="0 0 20 20" xmlns="http://www.w3.org/2000/svg">
    <path d="M18.9 8.2H18V8H10V12H15.1C14.4 14.3 12.3 16 10 16C6.7 16 4 13.3 4 10C4 6.7 6.7 4 10 4C11.5 4 12.9 4.6 13.9 5.6L16.7 2.8C15 1.2 12.7 0 10 0C4.5 0 0 4.5 0 10C0 15.5 4.5 20 10 20C15.5 20 20 15.5 20 10C20 9.4 19.9 8.8 18.9 8.2Z" fill="#4285F4"/>
    <path d="M1.5 6.1L4.8 8.6C5.6 6.4 7.6 4.8 10 4.8C11.5 4.8 12.9 5.4 13.9 6.4L16.7 3.6C15 2 12.7 0.9 10 0.9C6.1 0.9 2.8 3 1.5 6.1Z" fill="#EA4335"/>
    <path d="M10 20C12.7 20 15 18.9 16.7 17.3L13.6 14.7C12.7 15.4 11.4 15.9 10 15.9C7.5 15.9 5.5 14.2 4.8 11.9L1.5 14.4C2.8 17.5 6.1 20 10 20Z" fill="#34A853"/>
    <path d="M18.9 8.3H18V8H10V12H15.1C14.8 13.1 14.1 14 13.2 14.6L16.3 17.2C16.1 17.4 18.9 15.2 18.9 11.5C18.9 10.3 18.9 9.3 18.9 8.3Z" fill="#FBBC05"/>
</svg>